<?xml version="1.0" encoding="UTF-8"?>
<!-- Generated by Pixelmator Pro 3.6.18 -->
<svg width="1224" height="148" viewBox="0 0 1224 148" xmlns="http://www.w3.org/2000/svg">
    <path id="Path" fill="#f4f6fa" stroke="#f4f6fa" d="M 46.579987 119.450012 C 37.73999 119.450012 29.829987 117.47998 22.869995 113.549988 C 16.017242 109.729919 10.344513 104.102112 6.470001 97.280029 C 2.5 90.359985 0.51001 82.599976 0.51001 74 C 0.51001 65.400024 2.48999 57.640015 6.470001 50.719971 C 10.347137 43.897339 16.019043 38.266968 22.869995 34.440002 C 29.829987 30.51001 37.730011 28.539978 46.579987 28.539978 C 54.600006 28.539978 61.579987 30.039978 67.519989 33.02002 C 73.459991 36.01001 78.209991 39.919983 81.769989 44.75 C 85.282928 49.485168 87.924194 54.80835 89.570007 60.469971 L 74.579987 60.469971 C 72.545258 55.301453 69.07135 50.824585 64.570007 47.570007 C 59.859985 44.049988 53.859985 42.289978 46.579987 42.289978 C 40.679993 42.289978 35.399994 43.640015 30.730011 46.340027 C 26.059998 49.039978 22.420013 52.77002 19.799988 57.52002 C 17.179993 62.27002 15.869995 67.76001 15.869995 73.97998 C 15.869995 80.200012 17.160004 85.809998 19.73999 90.559998 C 22.233124 95.224243 26.003662 99.081482 30.609985 101.679993 C 35.279999 104.340027 40.600006 105.669983 46.579987 105.669983 C 54.029999 105.669983 60.170013 103.72998 65 99.840027 C 69.672974 96.171448 73.20694 91.250244 75.190002 85.650024 L 90.179993 85.650024 C 88.379456 91.626343 85.576202 97.253113 81.890015 102.289978 C 78.059174 107.494629 73.075806 111.742126 67.329987 114.700012 C 61.350006 117.849976 54.429993 119.429993 46.570007 119.429993 Z M 96.079987 116.98999 L 118.429993 31.01001 L 154.660004 31.01001 L 177.01001 116.98999 L 162.029999 116.98999 L 156.26001 94.880005 L 116.829987 94.880005 L 111.059998 116.98999 L 96.070007 116.98999 Z M 120.269989 81.119995 L 152.820007 81.119995 L 143.359985 44.76001 L 129.730011 44.76001 L 120.269989 81.119995 Z M 190.039978 116.98999 L 190.039978 31.01001 L 209.940002 31.01001 L 248.02002 97.710022 L 248.76001 97.710022 L 248.02002 91.809998 L 248.02002 31.01001 L 262.76001 31.01001 L 262.76001 116.98999 L 242.859985 116.98999 L 204.780029 50.289978 L 204.039978 50.289978 L 204.650024 56.190002 L 204.650024 116.869995 L 190.030029 116.98999 Z M 325.030029 119.450012 C 316.190002 119.450012 308.280029 117.47998 301.320007 113.549988 C 294.467224 109.729919 288.794495 104.102112 284.919983 97.280029 C 280.950012 90.359985 278.960022 82.599976 278.960022 74 C 278.960022 65.400024 280.940002 57.640015 284.919983 50.719971 C 288.79718 43.897339 294.469055 38.266968 301.320007 34.440002 C 308.280029 30.51001 316.179993 28.539978 325.030029 28.539978 C 333.049988 28.539978 340.030029 30.039978 345.969971 33.02002 C 351.909973 36.01001 356.659973 39.919983 360.219971 44.75 C 363.732971 49.485168 366.374207 54.80835 368.02002 60.469971 L 353.030029 60.469971 C 350.995239 55.301453 347.521362 50.824585 343.02002 47.570007 C 338.309998 44.049988 332.309998 42.289978 325.030029 42.289978 C 319.130005 42.289978 313.849976 43.640015 309.179993 46.340027 C 304.51001 49.039978 300.869995 52.77002 298.25 57.52002 C 295.630005 62.27002 294.320007 67.76001 294.320007 73.97998 C 294.320007 80.200012 295.609985 85.809998 298.190002 90.559998 C 300.683105 95.224243 304.453674 99.081482 309.059998 101.679993 C 313.72998 104.340027 319.049988 105.669983 325.030029 105.669983 C 332.47998 105.669983 338.619995 103.72998 343.450012 99.840027 C 348.122986 96.171448 351.656982 91.250244 353.640015 85.650024 L 368.630005 85.650024 C 366.829468 91.626343 364.026184 97.253113 360.340027 102.289978 C 356.509155 107.494629 351.525818 111.742126 345.780029 114.700012 C 339.799988 117.849976 332.880005 119.429993 325.02002 119.429993 Z M 384.359985 116.98999 L 384.359985 31.01001 L 446.630005 31.01001 L 446.630005 44.77002 L 398.969971 44.77002 L 398.969971 67 L 437.419983 67 L 437.419983 80.140015 L 398.969971 80.140015 L 398.969971 103.22998 L 446.630005 103.22998 L 446.630005 116.98999 L 384.359985 116.98999 Z M 462.969971 116.98999 L 462.969971 31.01001 L 501.539978 31.01001 C 508.169983 31.01001 513.950012 32.219971 518.859985 34.630005 C 523.509277 36.813049 527.432068 40.288025 530.159973 44.640015 C 532.786987 48.924622 534.149353 53.864502 534.090027 58.890015 C 534.090027 65.280029 532.190002 70.73999 528.380005 75.289978 C 524.570007 79.830017 519.429993 83.090027 512.960022 85.059998 L 533.840027 117 L 517.01001 117 L 497.599976 86.909973 L 477.580017 86.909973 L 477.580017 117 L 462.960022 117 Z M 501.289978 73.140015 C 507.099976 73.140015 511.52002 71.849976 514.559998 69.27002 C 517.590027 66.690002 519.099976 63.22998 519.099976 58.890015 C 519.099976 54.549988 517.580017 51.210022 514.559998 48.630005 C 511.530029 46.049988 507.109985 44.76001 501.289978 44.76001 L 477.580017 44.76001 L 477.580017 73.130005 L 501.289978 73.130005 Z M 570.690002 116.98999 L 570.690002 48.200012 L 543.049988 48.200012 L 543.049988 31 L 616.75 31 L 616.75 48.200012 L 589.109985 48.200012 L 589.109985 116.98999 L 570.690002 116.98999 Z M 628.419983 116.98999 L 628.419983 31.01001 L 668.950012 31.01001 C 675.75 31.01001 681.699951 32.280029 686.819946 34.820007 C 691.939941 37.359985 695.869995 40.840027 698.609985 45.26001 C 701.340332 49.644287 702.765869 54.715271 702.719971 59.880005 C 702.719971 66.27002 700.920044 71.690002 697.319946 76.159973 C 693.719971 80.619995 688.969971 84 683.069946 86.289978 L 702.719971 117 L 681.839966 117 L 664.030029 88.75 L 646.830017 88.75 L 646.830017 117 L 628.409973 117 Z M 668.340027 71.539978 C 673.419983 71.539978 677.23999 70.47998 679.819946 68.349976 C 682.400024 66.219971 683.689941 63.400024 683.689941 59.869995 C 683.689941 56.340027 682.400024 53.530029 679.819946 51.400024 C 677.23999 49.27002 673.409973 48.210022 668.340027 48.210022 L 646.840027 48.210022 L 646.840027 71.549988 L 668.340027 71.549988 Z M 717.469971 116.98999 L 717.469971 31.01001 L 735.890015 31.01001 L 735.890015 116.98999 L 717.469971 116.98999 Z M 746.949951 116.98999 L 769.670044 31.01001 L 808.359985 31.01001 L 831.079956 116.98999 L 812.040039 116.98999 L 807.130005 97.950012 L 770.900024 97.950012 L 765.98999 116.98999 L 746.949951 116.98999 Z M 775.199951 80.76001 L 802.839966 80.76001 L 794.23999 48.210022 L 783.800049 48.210022 L 775.199951 80.76001 Z M 842.140015 116.98999 L 842.140015 31.01001 L 860.560059 31.01001 L 860.560059 99.789978 L 902.939941 99.789978 L 902.939941 116.98999 L 842.140015 116.98999 Z M 948.390015 119.450012 C 940.859985 119.450012 934.390015 118.059998 928.97998 115.27002 C 923.893066 112.751404 919.488647 109.043274 916.140015 104.460022 C 913.025635 100.11969 910.830688 95.188843 909.689941 89.969971 L 928.72998 89.969971 C 929.853027 93.660095 932.162476 96.876404 935.300049 99.119995 C 938.619995 101.619995 942.97998 102.869995 948.380005 102.869995 C 952.150024 102.869995 955.219971 102.440002 957.589966 101.580017 C 959.959961 100.719971 961.680054 99.570007 962.75 98.140015 C 963.810059 96.710022 964.349976 95.01001 964.349976 93.039978 C 964.349976 91.070007 963.530029 89.27002 961.890015 87.880005 C 960.008545 86.355347 957.862915 85.18927 955.560059 84.440002 C 952.97998 83.539978 949.52002 82.559998 945.180054 81.48999 C 939.619019 80.061646 934.143555 78.318848 928.780029 76.27002 C 924.595825 74.613953 920.868652 71.980591 917.910034 68.590027 C 914.880005 65.150024 913.369995 60.609985 913.369995 54.960022 C 913.369995 50.210022 914.699951 45.809998 917.359985 41.76001 C 920.02002 37.710022 923.869995 34.48999 928.910034 32.119995 C 933.949951 29.75 939.819946 28.559998 946.540039 28.559998 C 953.660034 28.559998 959.73999 29.809998 964.780029 32.309998 C 969.819946 34.809998 973.75 38.039978 976.569946 42.01001 C 979.352295 45.872864 981.259888 50.295349 982.160034 54.969971 L 963.119995 54.969971 C 962.380005 52.27002 960.640015 49.960022 957.900024 48.030029 C 955.160034 46.109985 951.369995 45.140015 946.540039 45.140015 C 943.430054 45.140015 940.810059 45.549988 938.680054 46.369995 C 936.550049 47.190002 934.969971 48.289978 933.949951 49.690002 C 932.941406 51.03717 932.400635 52.677063 932.410034 54.359985 C 932.389038 56.367615 933.297119 58.272217 934.869995 59.52002 C 936.751465 61.044678 938.897095 62.210693 941.199951 62.960022 C 943.780029 63.859985 947.23999 64.840027 951.579956 65.909973 C 957.140625 67.339905 962.615967 69.082642 967.97998 71.130005 C 972.164185 72.786072 975.891357 75.419373 978.849976 78.809998 C 981.880005 82.25 983.390015 86.789978 983.390015 92.440002 C 983.390015 97.349976 982.040039 101.859985 979.339966 105.950012 C 976.640015 110.049988 972.650024 113.320007 967.359985 115.780029 C 962.079956 118.23999 955.75 119.469971 948.380005 119.469971 Z M 1035.959961 116.98999 L 1035.959961 31.01001 L 1078.579956 31.01001 C 1083.900024 31.01001 1088.569946 31.98999 1092.579956 33.960022 C 1096.335205 35.707458 1099.525635 38.471924 1101.790039 41.940002 C 1103.913696 45.279053 1105.021851 49.163025 1104.97998 53.119995 C 1104.97998 57.950012 1103.72998 61.900024 1101.22998 64.969971 C 1098.874512 67.939941 1095.689819 70.143127 1092.079956 71.299988 L 1092.079956 71.909973 C 1096.579956 72.809998 1100.410034 74.960022 1103.560059 78.359985 C 1106.709961 81.76001 1108.290039 86.359985 1108.290039 92.179993 C 1108.290039 96.929993 1107.099976 101.190002 1104.72998 104.950012 C 1102.349976 108.719971 1098.900024 111.659973 1094.349976 113.789978 C 1089.810059 115.919983 1084.339966 116.97998 1077.949951 116.97998 L 1035.939941 116.97998 Z M 1077.109985 66.02002 C 1081.119995 66.02002 1084.27002 65.02002 1086.569946 63.01001 C 1088.859985 61 1090.01001 58.400024 1090.01001 55.210022 C 1090.01001 52.02002 1088.859985 49.539978 1086.569946 47.530029 C 1084.280029 45.52002 1081.119995 44.52002 1077.109985 44.52002 L 1050.579956 44.52002 L 1050.579956 66.02002 L 1077.109985 66.02002 Z M 1077.359985 103.47998 C 1080.880005 103.47998 1083.829956 102.969971 1086.199951 101.940002 C 1088.359985 101.085571 1090.218262 99.610107 1091.540039 97.700012 C 1092.734253 95.877502 1093.354248 93.738647 1093.319946 91.559998 C 1093.319946 89.099976 1092.719971 86.950012 1091.540039 85.109985 C 1090.226563 83.164063 1088.369385 81.647705 1086.199951 80.75 C 1083.819946 79.690002 1080.880005 79.150024 1077.359985 79.150024 L 1050.579956 79.150024 L 1050.579956 103.469971 L 1077.359985 103.469971 Z M 1125.01001 116.98999 L 1125.01001 31.01001 L 1163.579956 31.01001 C 1170.209961 31.01001 1175.98999 32.219971 1180.900024 34.630005 C 1185.549316 36.813049 1189.472046 40.288025 1192.199951 44.640015 C 1194.827026 48.924622 1196.189331 53.864502 1196.130005 58.890015 C 1196.130005 65.280029 1194.22998 70.73999 1190.420044 75.289978 C 1186.609985 79.830017 1181.469971 83.090027 1175 85.059998 L 1195.880005 117 L 1179.050049 117 L 1159.640015 86.909973 L 1139.619995 86.909973 L 1139.619995 117 L 1125 117 Z M 1163.329956 73.140015 C 1169.140015 73.140015 1173.560059 71.849976 1176.599976 69.27002 C 1179.630005 66.690002 1181.140015 63.22998 1181.140015 58.890015 C 1181.140015 54.549988 1179.619995 51.210022 1176.599976 48.630005 C 1173.569946 46.049988 1169.150024 44.76001 1163.329956 44.76001 L 1139.619995 44.76001 L 1139.619995 73.130005 L 1163.329956 73.130005 Z"/>
    <path id="path1" fill="#f4f6fa" fill-rule="evenodd" stroke="#f4f6fa" stroke-width="3.77" d="M 1638 653 L 1781 466"/>
    <path id="path2" fill="none" stroke="#f4f6fa" stroke-width="6" d="M 1026.709961 3.179993 L 1203.380005 3.179993 C 1213.442627 3.179993 1221.599976 11.337402 1221.599976 21.400024 L 1221.599976 126.590027 C 1221.599976 136.652649 1213.442627 144.809998 1203.380005 144.809998 L 1026.709961 144.809998 C 1016.647339 144.809998 1008.48999 136.652649 1008.48999 126.590027 L 1008.48999 21.400024 C 1008.48999 11.337402 1016.647339 3.179993 1026.709961 3.179993 Z"/>
</svg>
